# xmcd CD database file
#
# Track frame offsets:
#	150
#	17617
#	29802
#
# Disc length: 628 seconds
#
# Revision: 0
# Processed by: cddbd v1.5.1PL0 Copyright (c) Steve Scherf et al.
# Submitted via: CDex 1.51
#
DISCID=1e027203
DTITLE=飯塚雅弓 - サルのサルサdeのルサ
DYEAR=1998
DGENRE=Japanese Unclassifiable
TTITLE0=サルのサルサdeのルサ
TTITLE1=バナナムーン(詩朗読)
TTITLE2=サルのサルサdeのルサ (オリジナルカラオケ)
EXTD=YEAR: 1998
EXTT0=
EXTT1=
EXTT2=
PLAYORDER=
